#Comment line ignore any data following # character 
#Hierarchical Translation and Rotation (.htr) file 
[Header]	
#Header keywords are followed by a single value 
FileType HTR		#Single word string
DataType HTRS		#Translation followed by rotation and scale data
FileVersion 1		#integer
NumSegments 64		#integer
NumFrames 3		#integer
DataFrameRate 30		#integer, data frame rate in this file
EulerRotationOrder ZYX
CalibrationUnits mm
RotationUnits Degrees
GlobalAxisofGravity Y
BoneLengthAxis Y
ScaleFactor 1.00
[SegmentNames&Hierarchy]
#CHILD	PARENT
Pinger_Root GLOBAL
Pelvis Pinger_Root
L_Hip Pelvis
R_Hip Pelvis
Rear_Leg01 Pelvis
Spine1 Pelvis
L_Leg01 L_Hip
L_Leg02 L_Leg01
L_Leg03 L_Leg02
L_Foot L_Leg03
L_Toe1_01 L_Foot
L_Toe2_01 L_Foot
L_Toe3_01 L_Foot
planeAlignerLeft L_Foot
L_Toe1_02 L_Toe1_01
L_Toe1_03 L_Toe1_02
L_Toe2_02 L_Toe2_01
L_Toe2_03 L_Toe2_02
L_Toe3_02 L_Toe3_01
L_Toe3_03 L_Toe3_02
planeLockWeightLeft planeAlignerLeft
R_Leg01 R_Hip
R_Leg02 R_Leg01
R_Leg03 R_Leg02
R_Foot R_Leg03
planeAlignerRight R_Foot
R_Toe1_01 R_Foot
R_Toe2_01 R_Foot
R_Toe3_01 R_Foot
planeLockWeightRight planeAlignerRight
R_Toe1_02 R_Toe1_01
R_Toe1_03 R_Toe1_02
R_Toe2_02 R_Toe2_01
R_Toe2_03 R_Toe2_02
R_Toe3_02 R_Toe3_01
R_Toe3_03 R_Toe3_02
Rear_Leg02 Rear_Leg01
Rear_Leg03 Rear_Leg02
Rear_Leg04 Rear_Leg03
Rear_Foot Rear_Leg04
planeAlignerCenter Rear_Foot
Rear_Toe1_01 Rear_Foot
Rear_Toe2_01 Rear_Foot
Rear_Toe3_01 Rear_Foot
planeLockWeightCenter planeAlignerCenter
Rear_Toe1_02 Rear_Toe1_01
Rear_Toe1_03 Rear_Toe1_02
Rear_Toe2_02 Rear_Toe2_01
Rear_Toe2_03 Rear_Toe2_02
Rear_Toe3_02 Rear_Toe3_01
Rear_Toe3_03 Rear_Toe3_02
Back_Bone Spine1
Head Spine1
Motor_Bone Back_Bone
Ping_Mechanism Back_Bone
BN_LookIK Head
bottomMouth Head
L_Mouth01 Head
L_mouthFront Head
mouthGun Head
R_Mouth01 Head
R_mouthFront Head
TopMouth Head
weapon_bone Head
[BasePosition]
#SegmentName Tx, Ty, Tz, Rx, Ry, Rz, BoneLength
Pinger_Root 0.000000 0.000000 0.000000 -90.000000 0.000000 0.000000 10.000000 
Pelvis 0.000000 0.000000 0.000000 0.000000 0.000000 0.000000 10.000000 
L_Hip 0.000000 0.000000 0.000000 0.000000 0.000000 0.000000 10.000000 
R_Hip 0.000000 0.000000 0.000000 0.000000 0.000000 0.000000 10.000000 
Rear_Leg01 0.000000 0.000000 0.000000 0.000000 0.000000 0.000000 10.000000 
Spine1 0.000000 0.000000 0.000000 0.000000 0.000000 0.000000 10.000000 
L_Leg01 0.000000 0.000000 0.000000 0.000000 0.000000 0.000000 10.000000 
L_Leg02 0.000000 0.000000 0.000000 0.000000 0.000000 0.000000 10.000000 
L_Leg03 0.000000 0.000000 0.000000 0.000000 0.000000 0.000000 10.000000 
L_Foot 0.000000 0.000000 0.000000 0.000000 0.000000 0.000000 10.000000 
L_Toe1_01 0.000000 0.000000 0.000000 0.000000 0.000000 0.000000 10.000000 
L_Toe2_01 0.000000 0.000000 0.000000 0.000000 0.000000 0.000000 10.000000 
L_Toe3_01 0.000000 0.000000 0.000000 0.000000 0.000000 0.000000 10.000000 
planeAlignerLeft 0.000000 0.000000 0.000000 0.000000 0.000000 0.000000 10.000000 
L_Toe1_02 0.000000 0.000000 0.000000 0.000000 0.000000 0.000000 10.000000 
L_Toe1_03 0.000000 0.000000 0.000000 0.000000 0.000000 0.000000 10.000000 
L_Toe2_02 0.000000 0.000000 0.000000 0.000000 0.000000 0.000000 10.000000 
L_Toe2_03 0.000000 0.000000 0.000000 0.000000 0.000000 0.000000 10.000000 
L_Toe3_02 0.000000 0.000000 0.000000 0.000000 0.000000 0.000000 10.000000 
L_Toe3_03 0.000000 0.000000 0.000000 0.000000 0.000000 0.000000 10.000000 
planeLockWeightLeft 0.000000 0.000000 0.000000 0.000000 0.000000 0.000000 10.000000 
R_Leg01 0.000000 0.000000 0.000000 0.000000 0.000000 0.000000 10.000000 
R_Leg02 0.000000 0.000000 0.000000 0.000000 0.000000 0.000000 10.000000 
R_Leg03 0.000000 0.000000 0.000000 0.000000 0.000000 0.000000 10.000000 
R_Foot 0.000000 0.000000 0.000000 0.000000 0.000000 0.000000 10.000000 
planeAlignerRight 0.000000 0.000000 0.000000 0.000000 0.000000 0.000000 10.000000 
R_Toe1_01 0.000000 0.000000 0.000000 0.000000 0.000000 0.000000 10.000000 
R_Toe2_01 0.000000 0.000000 0.000000 0.000000 0.000000 0.000000 10.000000 
R_Toe3_01 0.000000 0.000000 0.000000 0.000000 0.000000 0.000000 10.000000 
planeLockWeightRight 0.000000 0.000000 0.000000 0.000000 0.000000 0.000000 10.000000 
R_Toe1_02 0.000000 0.000000 0.000000 0.000000 0.000000 0.000000 10.000000 
R_Toe1_03 0.000000 0.000000 0.000000 0.000000 0.000000 0.000000 10.000000 
R_Toe2_02 0.000000 0.000000 0.000000 0.000000 0.000000 0.000000 10.000000 
R_Toe2_03 0.000000 0.000000 0.000000 0.000000 0.000000 0.000000 10.000000 
R_Toe3_02 0.000000 0.000000 0.000000 0.000000 0.000000 0.000000 10.000000 
R_Toe3_03 0.000000 0.000000 0.000000 0.000000 0.000000 0.000000 10.000000 
Rear_Leg02 0.000000 0.000000 0.000000 0.000000 0.000000 0.000000 10.000000 
Rear_Leg03 0.000000 0.000000 0.000000 0.000000 0.000000 0.000000 10.000000 
Rear_Leg04 0.000000 0.000000 0.000000 0.000000 0.000000 0.000000 10.000000 
Rear_Foot 0.000000 0.000000 0.000000 0.000000 0.000000 0.000000 10.000000 
planeAlignerCenter 0.000000 0.000000 0.000000 0.000000 0.000000 0.000000 10.000000 
Rear_Toe1_01 0.000000 0.000000 0.000000 0.000000 0.000000 0.000000 10.000000 
Rear_Toe2_01 0.000000 0.000000 0.000000 0.000000 0.000000 0.000000 10.000000 
Rear_Toe3_01 0.000000 0.000000 0.000000 0.000000 0.000000 0.000000 10.000000 
planeLockWeightCenter 0.000000 0.000000 0.000000 0.000000 0.000000 0.000000 10.000000 
Rear_Toe1_02 0.000000 0.000000 0.000000 0.000000 0.000000 0.000000 10.000000 
Rear_Toe1_03 0.000000 0.000000 0.000000 0.000000 0.000000 0.000000 10.000000 
Rear_Toe2_02 0.000000 0.000000 0.000000 0.000000 0.000000 0.000000 10.000000 
Rear_Toe2_03 0.000000 0.000000 0.000000 0.000000 0.000000 0.000000 10.000000 
Rear_Toe3_02 0.000000 0.000000 0.000000 0.000000 0.000000 0.000000 10.000000 
Rear_Toe3_03 0.000000 0.000000 0.000000 0.000000 0.000000 0.000000 10.000000 
Back_Bone 0.000000 0.000000 0.000000 0.000000 0.000000 0.000000 10.000000 
Head 0.000000 0.000000 0.000000 0.000000 0.000000 0.000000 10.000000 
Motor_Bone 0.000000 0.000000 0.000000 0.000000 0.000000 0.000000 10.000000 
Ping_Mechanism 0.000000 0.000000 0.000000 0.000000 0.000000 0.000000 10.000000 
BN_LookIK 0.000000 0.000000 0.000000 0.000000 0.000000 0.000000 10.000000 
bottomMouth 0.000000 0.000000 0.000000 0.000000 0.000000 0.000000 10.000000 
L_Mouth01 0.000000 0.000000 0.000000 0.000000 0.000000 0.000000 10.000000 
L_mouthFront 0.000000 0.000000 0.000000 0.000000 0.000000 0.000000 10.000000 
mouthGun 0.000000 0.000000 0.000000 0.000000 0.000000 0.000000 10.000000 
R_Mouth01 0.000000 0.000000 0.000000 0.000000 0.000000 0.000000 10.000000 
R_mouthFront 0.000000 0.000000 0.000000 0.000000 0.000000 0.000000 10.000000 
TopMouth 0.000000 0.000000 0.000000 0.000000 0.000000 0.000000 10.000000 
weapon_bone 0.000000 0.000000 0.000000 0.000000 0.000000 0.000000 10.000000 
#Beginning of Data. Separated by tabs
#Fr	Tx	Ty	Tz	Rx	Ry	Rz	SF
[Pinger_Root]
14 0.000000 0.000000 0.000000 -0.000075 -0.000000 -0.000020 0.000000
15 0.000000 0.000000 0.000000 -0.000075 -0.000000 -0.000020 0.000000
16 0.000000 0.000000 0.000000 -0.000075 -0.000000 -0.000020 0.000000
[Pelvis]
14 855.894714 527.749817 4295.303711 -34.306644 -82.451393 26.894823 4411.429688
15 864.304321 522.478088 4296.726074 -46.317101 -81.210884 39.040150 4413.826172
16 872.053467 517.670898 4313.983398 -48.287266 -80.851807 41.047176 4431.581055
[L_Hip]
14 5.766392 125.831482 872.656799 160.158691 -45.484913 122.312202 881.701050
15 5.766392 125.831482 872.656799 160.158691 -45.484898 122.312202 881.701050
16 5.766392 125.831482 872.656799 160.158676 -45.484894 122.312202 881.701050
[R_Hip]
14 5.765438 125.836372 -872.654907 38.087841 49.812687 125.703735 881.699829
15 5.765438 125.836372 -872.654907 38.087845 49.812691 125.703735 881.699829
16 5.765438 125.836372 -872.654907 38.087841 49.812687 125.703735 881.699829
[Rear_Leg01]
14 -192.298416 -925.602966 -0.001907 170.428955 -3.008259 -161.698090 945.367432
15 -192.298416 -925.602966 -0.001907 170.408157 -3.310091 -164.200165 945.367432
16 -192.298416 -925.602966 -0.001907 170.428268 -3.381977 -164.940994 945.367432
[Spine1]
14 290.604584 5.007505 0.000477 -12.242766 13.335260 0.027340 290.647736
15 290.604584 5.007505 0.000477 -12.253757 13.324476 0.007181 290.647736
16 290.604584 5.007505 0.000477 -12.264739 13.313685 -0.012975 290.647736
[L_Leg01]
14 761.932007 -0.002384 -0.069261 25.892452 -9.294728 -25.113831 761.932068
15 761.932007 -0.002384 -0.069261 24.696205 -10.450291 -22.923050 761.932068
16 761.932007 -0.002384 -0.069261 24.590042 -10.338770 -23.812820 761.932068
[L_Leg02]
14 1441.140503 -0.000954 -0.000715 -0.750753 0.083514 -92.912994 1441.140503
15 1441.140503 -0.000954 -0.000715 -0.726413 0.078653 -93.226555 1441.140503
16 1441.140503 -0.000954 -0.000715 -0.885638 0.106138 -90.896126 1441.140503
[L_Leg03]
14 1686.963989 -0.000715 -0.000954 -0.011408 0.002311 112.905342 1686.963989
15 1686.963989 -0.000715 -0.000954 -0.011407 0.002317 112.964668 1686.963989
16 1686.963989 -0.000715 -0.000954 -0.007988 0.001581 112.384331 1686.963989
[L_Foot]
14 3041.570068 -30.715107 11.297464 -7.393757 12.849586 37.164677 3041.746094
15 3041.570068 -30.715107 11.297464 -7.411415 12.815043 36.921471 3041.746094
16 3041.570068 -30.715107 11.297464 -7.373371 12.797135 36.422356 3041.746094
[L_Toe1_01]
14 -188.216690 -224.732346 -21.137953 93.510017 -4.701013 -169.412048 293.899567
15 -188.216690 -224.732346 -21.137953 93.555389 -4.487061 -169.979156 293.899567
16 -188.216690 -224.732346 -21.137953 93.598625 -4.272669 -170.545929 293.899567
[L_Toe2_01]
14 200.746536 -219.926590 148.838394 -89.923203 -23.058575 -55.245228 332.896027
15 200.746536 -219.926590 148.838394 -90.184647 -22.943558 -54.697807 332.896027
16 200.746536 -219.926590 148.838394 -90.444656 -22.826242 -54.151443 332.896027
[L_Toe3_01]
14 188.832520 -219.859131 -191.078659 -101.342064 14.977497 -72.308449 347.140900
15 188.832520 -219.859131 -191.078659 -101.392357 15.314532 -71.898659 347.140900
16 188.832520 -219.859131 -191.078659 -101.440239 15.651913 -71.488518 347.140900
[planeAlignerLeft]
14 0.812531 -811.448792 -0.314951 0.000000 -90.000000 -90.001900 811.449280
15 0.812531 -811.448792 -0.314951 0.000000 -90.000000 -90.001900 811.449280
16 0.812531 -811.448792 -0.314951 0.000000 -90.000000 -90.001900 811.449280
[L_Toe1_02]
14 413.761139 0.000477 0.000000 0.000203 -25.410625 -0.000182 413.761139
15 413.761139 0.000477 0.000000 0.000203 -25.410625 -0.000182 413.761139
16 413.761139 0.000477 0.000000 0.000203 -25.410625 -0.000182 413.761139
[L_Toe1_03]
14 464.317322 0.000358 -0.000089 0.003725 53.270576 0.003725 464.317322
15 464.317322 0.000358 -0.000089 0.003818 54.196438 0.003818 464.317322
16 464.317322 0.000358 -0.000089 0.003891 54.891972 0.003891 464.317322
[L_Toe2_02]
14 342.235809 -0.000477 0.000238 0.001189 -71.386528 0.001189 342.235809
15 342.235809 -0.000477 0.000238 0.001189 -71.713692 0.001189 342.235809
16 342.235809 -0.000477 0.000238 0.001188 -72.040840 0.001188 342.235809
[L_Toe2_03]
14 420.210846 -0.000715 0.000000 0.018500 82.725739 0.018500 420.210846
15 420.210846 -0.000715 0.000000 0.021329 83.691429 0.021329 420.210846
16 420.210846 -0.000715 0.000000 0.024214 84.443741 0.024214 420.210846
[L_Toe3_02]
14 329.270111 0.000954 0.000000 0.001181 -77.557152 0.001181 329.270111
15 329.270111 0.000954 0.000000 0.001180 -77.705475 0.001180 329.270111
16 329.270111 0.000954 0.000000 0.001180 -77.853745 0.001180 329.270111
[L_Toe3_03]
14 439.137451 -0.001907 0.000954 -179.957336 88.517082 -179.953842 439.137451
15 439.137451 -0.001907 0.000954 -179.969284 87.970978 -179.965790 439.137451
16 439.137451 -0.001907 0.000954 -179.976181 87.424431 -179.972672 439.137451
[planeLockWeightLeft]
14 -0.000954 0.000238 -0.000305 -0.011826 -0.004376 0.005620 0.001029
15 -0.000954 0.000238 -0.000305 -0.011826 -0.004376 0.005620 0.001029
16 -0.000954 0.000238 -0.000305 -0.011826 -0.004376 0.005620 0.001029
[R_Leg01]
14 761.455627 -0.001907 -0.000358 123.027512 -23.973021 26.594591 761.455688
15 761.455627 -0.001907 -0.000358 124.308556 -25.375839 25.097914 761.455688
16 761.455627 -0.001907 -0.000358 124.523064 -25.497034 25.020067 761.455688
[R_Leg02]
14 1441.140625 0.000000 -0.000238 -2.222572 -0.680708 -144.214645 1441.140625
15 1441.140625 0.000000 -0.000238 -2.198258 -0.663609 -143.472916 1441.140625
16 1441.140625 0.000000 -0.000238 -2.173727 -0.646827 -142.731232 1441.140625
[R_Leg03]
14 1686.963989 0.000954 0.001431 0.098295 -0.058218 137.204895 1686.963989
15 1686.963989 0.000954 0.001431 0.097569 -0.057742 137.056595 1686.963989
16 1686.963989 0.000954 0.001431 0.096842 -0.057268 136.908295 1686.963989
[R_Foot]
14 3041.560059 -30.531288 -11.204481 -10.150133 -24.067818 61.585800 3041.734131
15 3041.560059 -30.531288 -11.204481 -10.031991 -24.066332 61.005905 3041.734131
16 3041.560059 -30.531288 -11.204481 -10.156759 -24.092134 60.741802 3041.734131
[planeAlignerRight]
14 -0.635147 -812.270569 -0.364304 0.000000 -89.960434 -90.005180 812.270874
15 -0.635147 -812.270569 -0.364304 0.000000 -89.960434 -90.005180 812.270874
16 -0.635147 -812.270569 -0.364304 0.000000 -89.960434 -90.005180 812.270874
[R_Toe1_01]
14 -188.383347 -224.864899 21.052242 77.063293 8.244277 -170.515121 294.101532
15 -188.383347 -224.864899 21.052242 77.158691 8.680442 -171.090576 294.101532
16 -188.383347 -224.864899 21.052242 77.183395 8.843439 -170.692734 294.101532
[R_Toe2_01]
14 200.637817 -220.002121 -148.787384 -96.022163 43.353703 -60.523373 332.857574
15 200.637817 -220.002121 -148.787384 -95.907539 44.363525 -59.728863 332.857574
16 200.637817 -220.002121 -148.787384 -96.138298 44.489033 -60.032707 332.857574
[R_Toe3_01]
14 188.606735 -220.092957 191.126343 -76.368553 -3.576774 -67.528786 347.192566
15 188.606735 -220.092957 191.126343 -76.512024 -3.445268 -65.962868 347.192566
16 188.606735 -220.092957 191.126343 -76.567528 -3.243482 -66.109680 347.192566
[planeLockWeightRight]
14 -0.000477 0.000000 0.000000 -0.011823 -0.004379 -0.000027 0.000477
15 -0.000477 0.000000 0.000000 -0.011823 -0.004379 -0.000027 0.000477
16 -0.000477 0.000000 0.000000 -0.011823 -0.004379 -0.000027 0.000477
[R_Toe1_02]
14 413.762085 0.000477 -0.000119 0.001386 -25.657745 0.001386 413.762085
15 413.762085 0.000477 -0.000119 0.001387 -25.538113 0.001387 413.762085
16 413.762085 0.000477 -0.000119 0.001388 -25.418474 0.001388 413.762085
[R_Toe1_03]
14 464.317810 0.000000 0.001088 0.003140 46.103481 0.003140 464.317810
15 464.317810 0.000000 0.001088 0.003049 44.719421 0.003049 464.317810
16 464.317810 0.000000 0.001088 0.002982 43.651226 0.002982 464.317810
[R_Toe2_02]
14 342.234741 -0.000954 0.000238 0.001193 -69.529114 0.001193 342.234741
15 342.234741 -0.000954 0.000238 0.001192 -70.077873 0.001192 342.234741
16 342.234741 -0.000954 0.000238 0.001192 -69.886551 0.001192 342.234741
[R_Toe2_03]
14 420.210846 0.000715 -0.000268 0.011737 78.522644 0.011737 420.210846
15 420.210846 0.000715 -0.000268 0.013119 79.735153 0.013119 420.210846
16 420.210846 0.000715 -0.000268 0.012745 79.432678 0.012745 420.210846
[R_Toe3_02]
14 329.270355 -0.000477 -0.000954 0.001176 -82.615891 0.001176 329.270355
15 329.270355 -0.000477 -0.000954 0.001176 -83.117241 0.001176 329.270355
16 329.270355 -0.000477 -0.000954 0.001176 -83.104088 0.001176 329.270355
[R_Toe3_03]
14 439.137939 0.000238 0.001431 -179.998703 68.435028 -179.995148 439.137939
15 439.137939 0.000238 0.001431 -179.999100 65.341019 -179.995529 439.137939
16 439.137939 0.000238 0.001431 -179.999100 65.258812 -179.995529 439.137939
[Rear_Leg02]
14 1162.777710 -0.029802 0.005960 1.353752 -2.652994 -138.946289 1162.777710
15 1162.777710 -0.029802 0.005960 1.297593 -2.683407 -137.706497 1162.777710
16 1162.777710 -0.029802 0.005960 1.258381 -2.701389 -136.854477 1162.777710
[Rear_Leg03]
14 607.192505 -0.013351 -0.073195 0.010426 -0.005240 69.720497 607.192505
15 607.192505 -0.013351 -0.073195 0.010446 -0.005200 69.280495 607.192505
16 607.192505 -0.013351 -0.073195 0.010458 -0.005174 69.004448 607.192505
[Rear_Leg04]
14 995.874512 -0.020504 -0.011921 -0.040580 -0.017951 69.635559 995.874573
15 995.874512 -0.020504 -0.011921 -0.040440 -0.018266 68.746368 995.874573
16 995.874512 -0.020504 -0.011921 -0.040342 -0.018483 68.131447 995.874573
[Rear_Foot]
14 3096.176270 -0.067472 -0.041425 -169.642761 75.400238 18.146818 3096.176270
15 3096.176270 -0.067472 -0.041425 -169.621399 75.364120 17.869965 3096.176270
16 3096.176270 -0.067472 -0.041425 -169.599365 75.327934 17.593689 3096.176270
[planeAlignerCenter]
14 0.350077 0.966311 -838.790894 0.000009 0.000003 -179.999985 838.791565
15 0.350077 0.966311 -838.790894 0.000009 0.000003 -179.999985 838.791565
16 0.350077 0.966311 -838.790894 0.000009 0.000003 -179.999985 838.791565
[Rear_Toe1_01]
14 0.653352 83.966492 -371.173737 0.288091 41.914127 90.413170 380.553192
15 0.653352 83.966492 -371.173737 0.288093 41.914139 90.413170 380.553192
16 0.653352 83.966492 -371.173737 0.288091 41.914120 90.413162 380.553192
[Rear_Toe2_01]
14 178.200760 -294.826019 -362.060547 -7.196267 34.406261 -66.271294 499.765686
15 178.200760 -294.826019 -362.060547 -7.196268 34.406265 -66.271301 499.765686
16 178.200760 -294.826019 -362.060547 -7.196267 34.406261 -66.271294 499.765686
[Rear_Toe3_01]
14 -153.359680 -308.780914 -362.060852 3.289418 33.518005 -112.540970 499.952881
15 -153.359680 -308.780914 -362.060852 3.289417 33.518013 -112.540993 499.952881
16 -153.359680 -308.780914 -362.060852 3.289418 33.518005 -112.540970 499.952881
[planeLockWeightCenter]
14 -0.000062 0.000238 0.000000 -0.011814 -0.004373 -0.000015 0.000246
15 -0.000062 0.000238 0.000000 -0.011814 -0.004373 -0.000015 0.000246
16 -0.000062 0.000238 0.000000 -0.011814 -0.004373 -0.000015 0.000246
[Rear_Toe1_02]
14 379.707825 0.194073 0.000477 -0.000242 -31.676744 0.006934 379.707855
15 379.707825 0.194073 0.000477 -0.000242 -31.676744 0.006934 379.707855
16 379.707825 0.194073 0.000477 -0.000242 -31.676744 0.006934 379.707855
[Rear_Toe1_03]
14 500.129700 0.165701 0.000119 -0.000103 51.902481 0.007295 500.129761
15 500.129700 0.165701 0.000119 -0.000103 51.902485 0.007295 500.129761
16 500.129700 0.165701 0.000119 -0.000103 51.902481 0.007295 500.129761
[Rear_Toe2_02]
14 340.494507 0.000238 -0.000954 0.001192 -69.854523 0.001192 340.494507
15 340.494507 0.000238 -0.000954 0.001192 -69.854523 0.001192 340.494507
16 340.494507 0.000238 -0.000954 0.001192 -69.854523 0.001192 340.494507
[Rear_Toe2_03]
14 433.103577 0.000000 0.000238 0.006696 69.810326 0.006696 433.103546
15 433.103577 0.000000 0.000238 0.006696 69.810326 0.006696 433.103546
16 433.103577 0.000000 0.000238 0.006696 69.810326 0.006696 433.103546
[Rear_Toe3_02]
14 340.494141 -0.000358 -0.000477 0.008288 -67.274704 -0.009460 340.494171
15 340.494141 -0.000358 -0.000477 0.008288 -67.274704 -0.009460 340.494171
16 340.494141 -0.000358 -0.000477 0.008288 -67.274704 -0.009460 340.494171
[Rear_Toe3_03]
14 433.103577 0.001431 -0.000238 -0.000972 65.959007 -0.004547 433.103546
15 433.103577 0.001431 -0.000238 -0.000972 65.959007 -0.004547 433.103546
16 433.103577 0.001431 -0.000238 -0.000972 65.958984 -0.004547 433.103546
[Back_Bone]
14 1312.175781 -701.934692 0.000954 0.000023 -0.000007 -85.606667 1488.125488
15 1312.175781 -701.934692 0.000954 0.000023 -0.000007 -85.606667 1488.125488
16 1312.175781 -701.934692 0.000954 0.000023 -0.000007 -85.606667 1488.125488
[Head]
14 1406.159424 809.709290 0.001431 0.700179 6.633166 -4.799329 1622.625488
15 1406.159424 809.709290 0.001431 0.611682 4.177423 -1.866646 1622.625488
16 1406.159424 809.709290 0.001431 0.390014 1.548039 2.015180 1622.625488
[Motor_Bone]
14 1158.364380 -417.834747 0.000477 -0.000105 0.000046 -105.985291 1231.419434
15 1158.364380 -417.834747 0.000477 -0.000105 0.000046 -105.985291 1231.419434
16 1158.364380 -417.834747 0.000477 -0.000105 0.000046 -105.985291 1231.419434
[Ping_Mechanism]
14 1215.237793 -433.297150 0.000954 0.000103 -0.000053 82.120995 1290.174072
15 1215.237793 -433.297150 0.000954 0.000103 -0.000053 82.120995 1290.174072
16 1215.237793 -433.297150 0.000954 0.000103 -0.000053 82.120995 1290.174072
[BN_LookIK]
14 193.241119 1380.371704 -0.002861 0.000000 89.965736 -31.038179 1393.832153
15 193.241119 1380.371704 -0.002861 0.000000 89.965736 -31.038179 1393.832153
16 193.241119 1380.371704 -0.002861 0.000000 89.965736 -31.038179 1393.832153
[bottomMouth]
14 -435.092926 615.759399 -0.000954 -0.000022 0.000016 73.527184 753.966492
15 -435.092926 615.759399 -0.000954 -0.000022 0.000016 73.527184 753.966492
16 -435.092926 615.759399 -0.000954 -0.000022 0.000016 73.527184 753.966492
[L_Mouth01]
14 554.440979 7.658243 838.222046 150.204178 23.759130 109.605339 1005.027161
15 554.440979 7.658243 838.222046 150.204178 23.759130 109.605339 1005.027161
16 554.440979 7.658243 838.222046 150.204178 23.759130 109.605339 1005.027161
[L_mouthFront]
14 551.629089 934.514771 339.150421 0.000081 2.804060 79.119301 1136.941284
15 551.629089 934.514771 339.150421 0.000081 2.804060 79.119301 1136.941284
16 551.629089 934.514771 339.150421 0.000081 2.804060 79.119301 1136.941284
[mouthGun]
14 55.332661 1627.420898 0.000000 0.000023 0.000009 -11.038128 1628.361328
15 55.332661 1627.420898 0.000000 0.000023 0.000009 -11.038128 1628.361328
16 55.332661 1627.420898 0.000000 0.000023 0.000009 -11.038128 1628.361328
[R_Mouth01]
14 554.442383 7.659197 -838.223938 29.795891 -23.759109 109.605331 1005.029541
15 554.442383 7.659197 -838.223938 29.795891 -23.759109 109.605331 1005.029541
16 554.442383 7.659197 -838.223938 29.795891 -23.759109 109.605331 1005.029541
[R_mouthFront]
14 551.629089 934.514282 -339.151367 0.000029 -2.803930 79.119133 1136.941162
15 551.629089 934.514282 -339.151367 0.000029 -2.803930 79.119133 1136.941162
16 551.629089 934.514282 -339.151367 0.000029 -2.803930 79.119133 1136.941162
[TopMouth]
14 461.269867 -56.106091 -0.008583 -0.000059 -0.000268 92.025169 464.669525
15 461.269867 -56.106091 -0.008583 -0.000059 -0.000268 92.025169 464.669525
16 461.269867 -56.106091 -0.008583 -0.000059 -0.000268 92.025169 464.669525
[weapon_bone]
14 -987.239868 1448.372803 0.001431 0.000000 89.965736 -31.038221 1752.833740
15 -987.239868 1448.372803 0.001431 0.000000 89.965736 -31.038221 1752.833740
16 -987.239868 1448.372803 0.001431 0.000000 89.965736 -31.038221 1752.833740
